<?xml version="1.0" standalone="no"?>
<!DOCTYPE svg PUBLIC "-//W3C//DTD SVG 20010904//EN"
 "http://www.w3.org/TR/2001/REC-SVG-20010904/DTD/svg10.dtd">
<svg version="1.0" xmlns="http://www.w3.org/2000/svg"
 width="200.000000pt" height="200.000000pt" viewBox="0 0 200.000000 200.000000"
 preserveAspectRatio="xMidYMid meet">
<metadata>
Created by potrace 1.11, written by Peter Selinger 2001-2013
</metadata>
<g transform="translate(0.000000,200.000000) scale(0.100000,-0.100000)"
fill="#000000" stroke="none">
<path d="M0 1000 l0 -1000 1000 0 1000 0 0 1000 0 1000 -1000 0 -1000 0 0
-1000z m1191 553 c13 -16 12 -17 -3 -4 -10 7 -18 15 -18 17 0 8 8 3 21 -13z
m-2 -56 c5 -14 21 -20 66 -23 33 -2 83 -11 111 -19 46 -13 56 -13 98 1 26 9
50 13 53 10 4 -3 1 -23 -5 -43 -6 -20 -8 -40 -3 -43 13 -9 22 -43 12 -49 -5
-3 -10 -47 -12 -96 -2 -85 0 -97 44 -223 44 -124 87 -320 87 -397 0 -33 -26
-79 -40 -70 -5 3 -71 19 -146 36 -75 16 -162 38 -193 49 -129 43 -165 59 -166
71 -1 8 -5 60 -9 115 l-7 101 51 81 c27 45 57 101 66 124 9 24 23 48 30 54 23
19 16 32 -18 30 -41 -1 -49 26 -17 60 20 21 21 26 9 34 -8 5 -26 10 -39 10
-21 0 -23 -3 -17 -33 4 -22 1 -39 -9 -52 -15 -20 -16 -20 -31 3 -22 30 -37 28
-30 -5 4 -20 -2 -42 -23 -77 l-29 -49 -18 34 c-13 23 -18 54 -18 99 1 79 26
134 82 178 31 25 42 43 56 94 l17 63 20 -25 c11 -14 23 -33 28 -43z m29 8 c-3
-3 -9 2 -12 12 -6 14 -5 15 5 6 7 -7 10 -15 7 -18z m-235 -160 c-3 -9 -8 -14
-10 -11 -3 3 -2 9 2 15 9 16 15 13 8 -4z m97 -215 c-6 -11 -13 -20 -16 -20 -2
0 0 9 6 20 6 11 13 20 16 20 2 0 0 -9 -6 -20z m-983 -32 c-3 -8 -6 -5 -6 6 -1
11 2 17 5 13 3 -3 4 -12 1 -19z m1043 -38 c-6 -11 -13 -20 -16 -20 -2 0 0 9 6
20 6 11 13 20 16 20 2 0 0 -9 -6 -20z m-1033 -12 c-3 -8 -6 -5 -6 6 -1 11 2
17 5 13 3 -3 4 -12 1 -19z m893 18 c0 -2 -8 -10 -17 -17 -16 -13 -17 -12 -4 4
13 16 21 21 21 13z m79 -38 c-62 -90 -210 -248 -231 -248 -2 0 38 42 87 92 50
51 105 114 123 141 18 26 35 47 38 47 3 0 -5 -15 -17 -32z m-1014 5 c24 -11
35 -23 34 -37 0 -20 -1 -20 -8 -2 -4 10 -23 27 -42 37 -43 23 -32 25 16 2z
m1808 -59 c-3 -73 -21 -126 -68 -199 -38 -60 -122 -155 -136 -155 -20 0 -7 35
26 71 44 49 66 94 100 204 43 139 46 146 64 143 13 -3 16 -15 14 -64z m-1059
27 c-2 -3 -12 3 -22 13 -16 17 -16 18 5 5 12 -7 20 -15 17 -18z m256 -45 c-18
-24 -48 -59 -68 -77 l-37 -34 36 40 c20 22 48 57 64 78 15 20 29 37 32 37 2 0
-10 -20 -27 -44z m717 2 c-3 -8 -6 -5 -6 6 -1 11 2 17 5 13 3 -3 4 -12 1 -19z
m-887 -83 c-29 -30 -56 -53 -58 -50 -4 4 98 104 108 105 2 0 -20 -25 -50 -55z
m-60 35 c0 -5 -5 -10 -11 -10 -5 0 -7 5 -4 10 3 6 8 10 11 10 2 0 4 -4 4 -10z
m-733 -42 c-3 -8 -6 -5 -6 6 -1 11 2 17 5 13 3 -3 4 -12 1 -19z m423 12 c8 -5
11 -10 5 -10 -5 0 -17 5 -25 10 -8 5 -10 10 -5 10 6 0 17 -5 25 -10z m280 7
c0 -2 -10 -12 -22 -23 l-23 -19 19 23 c18 21 26 27 26 19z m50 -1 c0 -2 -8
-10 -17 -17 -16 -13 -17 -12 -4 4 13 16 21 21 21 13z m190 -9 c0 -2 -12 -14
-27 -28 l-28 -24 24 28 c23 25 31 32 31 24z m-295 -37 c-3 -5 -14 -10 -23 -9
-14 0 -13 2 3 9 27 11 27 11 20 0z m-238 -25 c-20 -14 -37 -31 -37 -37 0 -6
-3 -8 -7 -4 -9 9 47 65 67 65 8 1 -2 -10 -23 -24z m-70 -47 c-2 -13 -4 -5 -4
17 -1 22 1 32 4 23 2 -10 2 -28 0 -40z m383 48 c0 -3 -15 -14 -32 -26 l-33
-22 30 26 c31 27 35 29 35 22z m154 -11 c-4 -8 -10 -13 -14 -10 -5 3 -11 1
-15 -5 -3 -5 -12 -10 -18 -10 -7 0 2 9 18 20 36 24 36 24 29 5z m76 -9 c0 -2
-7 -7 -16 -10 -8 -3 -12 -2 -9 4 6 10 25 14 25 6z m-943 -48 c-3 -8 -6 -5 -6
6 -1 11 2 17 5 13 3 -3 4 -12 1 -19z m883 18 c0 -2 -7 -9 -15 -16 -13 -11 -14
-10 -9 4 5 14 24 23 24 12z m830 -20 c0 -2 -8 -10 -17 -17 -16 -13 -17 -12 -4
4 13 16 21 21 21 13z m-961 -23 c3 -2 -9 -3 -27 -1 -18 1 -32 6 -32 10 0 8 49
0 59 -9z m-392 -25 c-3 -7 -5 -2 -5 12 0 14 2 19 5 13 2 -7 2 -19 0 -25z m98
22 c-3 -5 -12 -10 -18 -10 -7 0 -6 4 3 10 19 12 23 12 15 0z m-448 -22 c-3 -8
-6 -5 -6 6 -1 11 2 17 5 13 3 -3 4 -12 1 -19z m310 -10 c-3 -7 -5 -2 -5 12 0
14 2 19 5 13 2 -7 2 -19 0 -25z m478 22 c13 -6 15 -9 5 -9 -8 0 -22 4 -30 9
-18 12 -2 12 25 0z m90 -30 c13 -6 15 -9 5 -9 -8 0 -22 4 -30 9 -18 12 -2 12
25 0z m-198 -32 c-3 -7 -5 -2 -5 12 0 14 2 19 5 13 2 -7 2 -19 0 -25z m-385
-10 c-8 -8 -9 -4 -5 13 4 13 8 18 11 10 2 -7 -1 -18 -6 -23z m641 25 c-7 -2
-19 -2 -25 0 -7 3 -2 5 12 5 14 0 19 -2 13 -5z m707 3 c0 -2 -8 -10 -17 -17
-16 -13 -17 -12 -4 4 13 16 21 21 21 13z m-1283 -28 c-3 -8 -6 -5 -6 6 -1 11
2 17 5 13 3 -3 4 -12 1 -19z m643 12 c11 -8 7 -9 -15 -4 -37 8 -45 14 -19 14
10 0 26 -5 34 -10z m50 -20 c8 -5 11 -10 5 -10 -5 0 -17 5 -25 10 -8 5 -10 10
-5 10 6 0 17 -5 25 -10z m-395 -57 c-9 -15 -13 -19 -9 -8 3 11 9 31 12 45 4
18 7 20 10 8 2 -9 -4 -29 -13 -45z m-610 37 c3 -6 -1 -7 -9 -4 -18 7 -21 14
-7 14 6 0 13 -4 16 -10z m210 -10 c-16 -11 -34 -20 -40 -20 -12 0 46 38 60 39
6 1 -3 -8 -20 -19z m-164 -18 c-7 -2 -18 1 -23 6 -8 8 -4 9 13 5 13 -4 18 -8
10 -11z m331 -43 c16 -6 27 -14 24 -16 -13 -13 -86 48 -86 72 1 6 8 -2 17 -17
10 -15 30 -33 45 -39z m353 44 c-22 -3 -47 -10 -55 -16 -13 -11 -13 -10 -1 6
9 12 26 16 55 15 l41 -1 -40 -4z m-592 -10 c-13 -2 -35 -2 -50 0 -16 2 -5 4
22 4 28 0 40 -2 28 -4z m674 1 c-3 -3 -12 -4 -19 -1 -8 3 -5 6 6 6 11 1 17 -2
13 -5z m360 0 c-3 -3 -12 -4 -19 -1 -8 3 -5 6 6 6 11 1 17 -2 13 -5z m-312
-14 c3 -6 -1 -7 -9 -4 -18 7 -21 14 -7 14 6 0 13 -4 16 -10z m-212 -15 c-3 -9
-8 -14 -10 -11 -3 3 -2 9 2 15 9 16 15 13 8 -4z m614 9 c-3 -3 -12 -4 -19 -1
-8 3 -5 6 6 6 11 1 17 -2 13 -5z m50 -10 c-3 -3 -12 -4 -19 -1 -8 3 -5 6 6 6
11 1 17 -2 13 -5z m46 -11 c-7 -2 -19 -2 -25 0 -7 3 -2 5 12 5 14 0 19 -2 13
-5z m-808 -13 c-3 -5 -14 -10 -23 -9 -14 0 -13 2 3 9 27 11 27 11 20 0z m870
0 c13 -5 14 -9 5 -9 -8 0 -24 4 -35 9 -13 5 -14 9 -5 9 8 0 24 -4 35 -9z
m-932 -17 c-7 -2 -19 -2 -25 0 -7 3 -2 5 12 5 14 0 19 -2 13 -5z m424 -15 c-3
-8 -6 -5 -6 6 -1 11 2 17 5 13 3 -3 4 -12 1 -19z m560 16 c-3 -3 -12 -4 -19
-1 -8 3 -5 6 6 6 11 1 17 -2 13 -5z m68 -14 c25 -11 -1 -11 -35 0 -20 6 -21 8
-5 8 11 0 29 -3 40 -8z m62 -16 c-3 -3 -12 -4 -19 -1 -8 3 -5 6 6 6 11 1 17
-2 13 -5z m-917 -19 c14 -8 21 -14 15 -14 -5 0 -21 6 -35 14 -14 8 -20 14 -15
14 6 0 21 -6 35 -14z m63 -22 c-7 -2 -19 -2 -25 0 -7 3 -2 5 12 5 14 0 19 -2
13 -5z m110 0 c-7 -2 -21 -2 -30 0 -10 3 -4 5 12 5 17 0 24 -2 18 -5z"/>
<path d="M1062 1348 c3 -7 22 -14 43 -16 34 -3 37 -2 26 12 -16 19 -75 22 -69
4z"/>
<path d="M1245 1331 c-7 -13 5 -19 53 -27 50 -8 57 9 11 25 -39 13 -56 14 -64
2z"/>
</g>
</svg>
